<svg xmlns="http://www.w3.org/2000/svg" viewBox="47 1082 6170 3899" fill="none">
<g fill="#E43A27">
<path    
	d="
M4398,2569 
	C4382,2559 4367,2551 4352,2541 
	C4297,2507 4242,2472 4187,2437 
	C4133,2404 4079,2370 4026,2337 
	C3977,2306 3928,2276 3878,2245 
	C3819,2208 3759,2171 3699,2134 
	C3638,2096 3578,2058 3518,2021 
	C3475,1994 3433,1968 3391,1942 
	C3330,1904 3270,1866 3209,1829 
	C3189,1816 3168,1804 3149,1791 
	C3138,1784 3130,1783 3119,1790 
	C3069,1822 3018,1854 2967,1885 
	C2914,1918 2860,1951 2806,1985 
	C2761,2012 2717,2041 2672,2068 
	C2629,2095 2586,2121 2543,2148 
	C2510,2168 2477,2189 2443,2210 
	C2400,2237 2356,2264 2313,2291 
	C2289,2306 2265,2321 2242,2335 
	C2205,2358 2168,2381 2131,2404 
	C2108,2418 2084,2434 2060,2448 
	C2024,2471 1988,2493 1952,2516 
	C1928,2531 1904,2546 1879,2561 
	C1844,2583 1808,2605 1772,2627 
	C1748,2642 1724,2658 1700,2673 
	C1664,2695 1628,2717 1593,2739 
	C1559,2760 1526,2780 1493,2801 
	C1449,2829 1405,2856 1360,2883 
	C1337,2898 1313,2913 1289,2928 
	C1253,2950 1216,2973 1179,2996 
	C1156,3010 1133,3025 1110,3039 
	C1073,3062 1036,3085 1000,3108 
	C966,3128 933,3149 900,3170 
	C862,3193 825,3216 788,3239 
	C755,3260 721,3281 688,3302 
	C651,3325 613,3348 576,3371 
	C543,3392 509,3413 476,3434 
	C453,3448 429,3463 405,3478 
	C400,3482 394,3484 387,3488 
	C384,3485 382,3483 380,3480 
	C360,3449 340,3417 321,3386 
	C305,3362 290,3337 275,3313 
	C250,3272 225,3232 199,3191 
	C178,3157 157,3124 136,3090 
	C124,3072 113,3054 102,3035 
	C97,3028 98,3023 106,3019 
	C119,3009 134,3000 148,2992 
	C175,2975 202,2958 229,2941 
	C283,2907 337,2873 391,2839 
	C416,2824 440,2809 464,2794 
	C508,2766 552,2739 596,2711 
	C620,2696 643,2681 667,2666 
	C711,2639 756,2611 800,2583 
	C837,2560 873,2538 909,2515 
	C929,2502 949,2489 969,2477 
	C977,2472 980,2467 979,2459 
	C979,2454 979,2448 979,2443 
	C979,2092 979,1740 979,1389 
	C979,1380 980,1372 980,1363 
	C985,1361 988,1360 992,1360 
	C996,1359 1000,1360 1004,1360 
	C1245,1360 1487,1360 1728,1360 
	C1734,1360 1740,1360 1746,1360 
	C1751,1361 1754,1364 1755,1369 
	C1755,1376 1755,1383 1755,1389 
	C1755,1579 1755,1768 1755,1957 
	C1755,1965 1755,1972 1755,1980 
	C1764,1982 1769,1977 1774,1974 
	C1785,1968 1795,1961 1805,1955 
	C1849,1927 1894,1899 1938,1871 
	C1977,1847 2015,1824 2054,1800 
	C2085,1781 2116,1761 2147,1742 
	C2183,1720 2218,1698 2254,1676 
	C2287,1655 2321,1635 2354,1614 
	C2387,1593 2421,1573 2454,1552 
	C2488,1531 2521,1511 2554,1490 
	C2588,1469 2621,1449 2654,1428 
	C2688,1407 2722,1386 2756,1365 
	C2795,1341 2834,1317 2873,1292 
	C2897,1278 2921,1263 2944,1248 
	C2999,1214 3054,1180 3109,1147 
	C3116,1142 3123,1137 3132,1132 
	C3142,1138 3152,1143 3162,1149 
	C3218,1184 3273,1219 3328,1253 
	C3392,1294 3457,1334 3521,1374 
	C3581,1411 3641,1448 3700,1486 
	C3761,1523 3821,1561 3882,1598 
	C3924,1624 3965,1651 4007,1676 
	C4050,1703 4093,1729 4136,1756 
	C4160,1771 4184,1787 4209,1802 
	C4248,1826 4288,1851 4327,1876 
	C4361,1896 4394,1917 4427,1938 
	C4465,1961 4502,1984 4539,2007 
	C4566,2024 4592,2041 4619,2057 
	C4663,2085 4707,2112 4751,2139 
	C4775,2154 4799,2170 4823,2185 
	C4863,2210 4904,2235 4944,2260 
	C4967,2275 4991,2290 5015,2304 
	C5062,2333 5109,2362 5155,2392 
	C5179,2406 5203,2421 5226,2436 
	C5263,2459 5299,2481 5335,2503 
	C5359,2518 5382,2533 5406,2548 
	C5447,2573 5487,2598 5528,2624 
	C5562,2645 5596,2666 5629,2687 
	C5677,2717 5724,2746 5772,2776 
	C5796,2791 5819,2806 5843,2820 
	C5879,2843 5915,2865 5951,2888 
	C5975,2902 5998,2917 6021,2931 
	C6067,2960 6113,2989 6159,3018 
	C6162,3019 6165,3021 6167,3023 
	C6167,3033 6161,3040 6157,3047 
	C6132,3086 6107,3125 6082,3163 
	C6047,3218 6012,3273 5978,3328 
	C5952,3368 5927,3408 5902,3448 
	C5896,3457 5891,3466 5885,3475 
	C5882,3480 5879,3483 5875,3488 
	C5865,3483 5856,3478 5847,3472 
	C5799,3443 5751,3413 5703,3383 
	C5678,3367 5653,3352 5628,3336 
	C5589,3312 5550,3288 5511,3263 
	C5478,3243 5445,3222 5412,3201 
	C5374,3178 5337,3155 5300,3132 
	C5266,3111 5233,3090 5200,3069 
	C5163,3046 5125,3023 5088,3000 
	C5064,2985 5040,2969 5015,2954 
	C4980,2932 4944,2910 4909,2888 
	C4885,2873 4861,2858 4837,2843 
	C4801,2821 4764,2798 4727,2775 
	C4704,2761 4681,2746 4658,2732 
	C4617,2706 4575,2680 4534,2655 
	C4500,2634 4467,2612 4433,2591 
	C4422,2584 4410,2577 4398,2569 
z"/>
<path    
	d="
M2597,3769 
	C2579,3799 2559,3825 2534,3847 
	C2513,3867 2490,3884 2464,3897 
	C2441,3909 2417,3921 2391,3929 
	C2364,3938 2337,3944 2308,3948 
	C2290,3951 2272,3950 2255,3952 
	C2197,3959 2139,3954 2081,3955 
	C2023,3956 1965,3955 1907,3955 
	C1902,3955 1897,3955 1890,3954 
	C1889,3950 1888,3947 1888,3943 
	C1887,3938 1888,3932 1888,3927 
	C1888,3694 1888,3461 1888,3227 
	C1888,3219 1888,3211 1888,3203 
	C1892,3202 1896,3200 1900,3200 
	C1904,3199 1908,3200 1912,3200 
	C2023,3200 2134,3200 2245,3200 
	C2255,3200 2265,3199 2275,3202 
	C2278,3204 2282,3203 2285,3203 
	C2329,3206 2371,3216 2413,3232 
	C2448,3246 2482,3264 2511,3288 
	C2525,3298 2537,3311 2549,3323 
	C2575,3347 2594,3377 2610,3409 
	C2625,3440 2635,3473 2640,3508 
	C2642,3521 2644,3534 2644,3547 
	C2644,3552 2646,3556 2646,3561 
	C2646,3571 2648,3581 2646,3591 
	C2644,3601 2644,3612 2643,3622 
	C2642,3636 2640,3650 2637,3663 
	C2630,3697 2618,3730 2601,3760 
	C2600,3763 2599,3765 2597,3769 
M2063,3781 
	C2063,3787 2063,3793 2064,3799 
	C2064,3803 2065,3807 2066,3810 
	C2071,3811 2074,3811 2077,3811 
	C2132,3810 2187,3814 2243,3808 
	C2264,3806 2285,3805 2305,3799 
	C2340,3790 2371,3774 2398,3751 
	C2440,3713 2462,3665 2467,3611 
	C2470,3581 2470,3550 2463,3519 
	C2453,3468 2428,3426 2387,3394 
	C2345,3361 2295,3346 2243,3344 
	C2188,3342 2132,3344 2077,3344 
	C2073,3344 2069,3345 2066,3345 
	C2065,3347 2064,3349 2064,3350 
	C2064,3492 2064,3635 2063,3781 
z"/>
<path    
	d="
M4219,3200 
	C4229,3200 4237,3200 4245,3200 
	C4248,3206 4251,3211 4254,3216 
	C4267,3245 4279,3275 4292,3304 
	C4298,3317 4304,3331 4310,3344 
	C4319,3363 4328,3383 4337,3402 
	C4350,3432 4363,3463 4377,3493 
	C4383,3508 4390,3522 4396,3537 
	C4413,3574 4429,3611 4446,3648 
	C4461,3680 4475,3712 4490,3744 
	C4503,3774 4516,3804 4529,3834 
	C4536,3850 4543,3865 4550,3881 
	C4559,3900 4568,3919 4576,3937 
	C4578,3942 4581,3947 4577,3953 
	C4575,3954 4572,3955 4569,3955 
	C4515,3955 4462,3955 4409,3955 
	C4407,3955 4405,3954 4401,3954 
	C4388,3929 4379,3901 4367,3874 
	C4356,3848 4345,3820 4334,3794 
	C4332,3793 4332,3793 4331,3793 
	C4331,3792 4330,3792 4329,3792 
	C4219,3792 4109,3792 4000,3792 
	C3996,3792 3992,3792 3988,3792 
	C3980,3799 3977,3809 3973,3818 
	C3956,3859 3939,3900 3922,3942 
	C3919,3950 3914,3956 3903,3955 
	C3852,3955 3801,3955 3749,3955 
	C3747,3955 3744,3954 3741,3953 
	C3741,3945 3745,3938 3748,3930 
	C3763,3896 3778,3862 3793,3828 
	C3807,3799 3820,3769 3834,3739 
	C3848,3706 3863,3673 3877,3641 
	C3890,3612 3903,3583 3916,3553 
	C3930,3523 3943,3493 3957,3462 
	C3963,3448 3969,3434 3975,3420 
	C3990,3388 4005,3356 4019,3324 
	C4032,3295 4044,3266 4057,3236 
	C4062,3225 4068,3213 4074,3201 
	C4079,3200 4085,3200 4091,3200 
	C4133,3200 4175,3200 4219,3200 
M4199,3467 
	C4187,3438 4175,3410 4163,3382 
	C4162,3380 4160,3379 4158,3376 
	C4155,3381 4153,3384 4152,3388 
	C4148,3399 4144,3409 4139,3420 
	C4127,3448 4115,3477 4103,3506 
	C4089,3541 4074,3576 4060,3611 
	C4055,3623 4050,3636 4045,3648 
	C4044,3651 4045,3654 4045,3659 
	C4052,3659 4059,3659 4065,3659 
	C4106,3660 4147,3660 4187,3660 
	C4212,3660 4237,3660 4261,3659 
	C4266,3659 4270,3658 4276,3657 
	C4274,3653 4274,3649 4273,3646 
	C4268,3635 4263,3623 4258,3612 
	C4238,3564 4219,3517 4199,3467 
z"/>
<path    
	d="
M1099,3612 
	C1115,3577 1130,3543 1145,3510 
	C1151,3496 1157,3482 1163,3468 
	C1178,3436 1193,3404 1207,3372 
	C1220,3343 1233,3313 1245,3284 
	C1253,3267 1261,3250 1269,3233 
	C1272,3227 1274,3220 1277,3213 
	C1280,3204 1286,3198 1296,3200 
	C1297,3200 1298,3200 1298,3200 
	C1346,3200 1393,3200 1440,3200 
	C1442,3200 1444,3200 1446,3200 
	C1453,3199 1457,3203 1460,3209 
	C1465,3221 1471,3233 1476,3245 
	C1493,3284 1511,3322 1528,3360 
	C1546,3402 1564,3443 1582,3484 
	C1597,3517 1612,3550 1627,3582 
	C1640,3612 1652,3641 1665,3670 
	C1673,3687 1681,3704 1688,3721 
	C1702,3751 1715,3780 1729,3810 
	C1746,3848 1762,3885 1779,3923 
	C1783,3933 1787,3942 1792,3953 
	C1785,3954 1782,3955 1778,3955 
	C1727,3955 1677,3955 1626,3956 
	C1614,3956 1608,3951 1604,3940 
	C1593,3914 1582,3888 1572,3863 
	C1564,3844 1556,3825 1548,3806 
	C1546,3801 1544,3797 1542,3794 
	C1541,3793 1540,3793 1539,3793 
	C1539,3792 1538,3792 1538,3792 
	C1427,3792 1316,3792 1206,3792 
	C1202,3792 1199,3792 1195,3792 
	C1193,3795 1191,3797 1190,3800 
	C1177,3832 1164,3864 1151,3896 
	C1144,3913 1136,3930 1129,3948 
	C1128,3950 1126,3952 1125,3954 
	C1107,3956 968,3956 950,3954 
	C950,3951 950,3947 951,3945 
	C964,3915 978,3885 991,3856 
	C1011,3811 1030,3767 1050,3722 
	C1064,3692 1078,3662 1091,3632 
	C1094,3625 1096,3619 1099,3612 
M1343,3433 
	C1341,3438 1339,3443 1337,3448 
	C1326,3475 1314,3503 1302,3530 
	C1286,3570 1270,3609 1254,3648 
	C1252,3651 1253,3654 1253,3658 
	C1257,3659 1260,3659 1263,3659 
	C1333,3660 1402,3660 1471,3659 
	C1475,3659 1479,3658 1481,3657 
	C1485,3651 1482,3646 1480,3641 
	C1468,3614 1457,3586 1445,3558 
	C1423,3503 1400,3448 1378,3393 
	C1376,3387 1374,3382 1367,3377 
	C1359,3395 1351,3412 1343,3433 
z"/>
<path    
	d="
M5091,3239 
	C5097,3229 5103,3220 5108,3211 
	C5113,3203 5119,3199 5128,3199 
	C5146,3200 5165,3200 5184,3200 
	C5212,3200 5241,3200 5270,3200 
	C5274,3200 5277,3200 5281,3201 
	C5283,3208 5279,3213 5276,3218 
	C5267,3234 5258,3249 5248,3264 
	C5226,3301 5204,3337 5182,3374 
	C5162,3408 5141,3442 5121,3476 
	C5099,3513 5077,3549 5055,3585 
	C5037,3614 5020,3644 5002,3673 
	C4997,3681 4995,3689 4995,3699 
	C4995,3775 4995,3852 4995,3929 
	C4995,3935 4995,3941 4995,3947 
	C4994,3951 4991,3954 4987,3955 
	C4984,3955 4980,3955 4977,3955 
	C4929,3955 4881,3955 4833,3955 
	C4830,3955 4826,3955 4824,3954 
	C4818,3950 4820,3944 4819,3939 
	C4819,3912 4819,3884 4819,3857 
	C4819,3804 4819,3752 4820,3699 
	C4820,3689 4818,3681 4813,3673 
	C4790,3637 4769,3601 4747,3565 
	C4726,3529 4704,3492 4682,3456 
	C4659,3419 4637,3382 4615,3345 
	C4588,3301 4562,3257 4536,3213 
	C4534,3212 4533,3210 4533,3208 
	C4531,3205 4533,3201 4536,3200 
	C4539,3200 4542,3200 4544,3200 
	C4598,3200 4652,3200 4706,3200 
	C4708,3200 4710,3200 4713,3201 
	C4779,3310 4845,3420 4911,3529 
	C4918,3530 4920,3525 4922,3521 
	C4940,3491 4958,3462 4975,3432 
	C4997,3395 5020,3359 5042,3323 
	C5056,3299 5069,3276 5083,3252 
	C5086,3248 5088,3245 5091,3239 
z"/>
<path    
	d="
M3716,3864 
	C3716,3894 3716,3923 3716,3952 
	C3711,3953 3707,3955 3703,3955 
	C3700,3956 3696,3955 3692,3955 
	C3524,3955 3356,3955 3188,3955 
	C3181,3955 3173,3956 3165,3953 
	C3165,3949 3164,3946 3164,3942 
	C3163,3937 3164,3932 3164,3928 
	C3163,3694 3163,3460 3164,3226 
	C3164,3218 3162,3210 3165,3201 
	C3169,3201 3173,3200 3177,3200 
	C3226,3200 3275,3200 3325,3200 
	C3329,3200 3332,3200 3337,3201 
	C3338,3205 3339,3209 3339,3213 
	C3340,3219 3339,3225 3339,3231 
	C3339,3415 3339,3600 3339,3784 
	C3339,3792 3340,3800 3340,3809 
	C3345,3810 3348,3811 3352,3811 
	C3360,3812 3368,3811 3376,3811 
	C3481,3811 3585,3811 3690,3811 
	C3697,3811 3704,3811 3712,3811 
	C3714,3816 3715,3820 3715,3824 
	C3716,3836 3716,3849 3716,3864 
z"/>
<path    
	d="
M2872,3200 
	C2903,3200 2932,3200 2961,3200 
	C2963,3200 2964,3201 2966,3203 
	C2967,3206 2967,3209 2968,3213 
	C2968,3218 2968,3223 2968,3227 
	C2968,3461 2968,3695 2968,3929 
	C2968,3936 2969,3945 2965,3953 
	C2963,3954 2960,3955 2956,3955 
	C2907,3955 2858,3955 2809,3955 
	C2807,3955 2805,3955 2803,3955 
	C2796,3954 2793,3951 2792,3945 
	C2792,3940 2792,3936 2792,3931 
	C2792,3695 2792,3458 2792,3222 
	C2792,3215 2790,3208 2795,3201 
	C2806,3198 2819,3200 2832,3200 
	C2844,3199 2857,3200 2872,3200 
z"/>
</g>
<g fill="#1C1A30">
<path    
	d="
M4431,4507 
	C4431,4444 4431,4383 4431,4322 
	C4431,4321 4432,4321 4432,4320 
	C4453,4318 4479,4318 4494,4321 
	C4494,4518 4494,4715 4494,4912 
	C4494,4914 4493,4916 4492,4919 
	C4476,4920 4459,4919 4441,4919 
	C4409,4880 4378,4840 4346,4800 
	C4314,4759 4282,4719 4251,4679 
	C4219,4639 4187,4598 4155,4558 
	C4123,4518 4092,4478 4058,4436 
	C4057,4441 4056,4443 4056,4446 
	C4056,4469 4056,4492 4056,4516 
	C4056,4642 4056,4769 4056,4896 
	C4056,4903 4056,4910 4056,4918 
	C4044,4920 4033,4919 4023,4919 
	C4013,4920 4003,4919 3995,4919 
	C3993,4918 3992,4917 3992,4917 
	C3992,4916 3992,4915 3992,4915 
	C3991,4721 3991,4527 3991,4333 
	C3991,4329 3991,4325 3991,4321 
	C4000,4317 4009,4319 4017,4319 
	C4026,4318 4034,4319 4044,4319 
	C4087,4371 4129,4425 4171,4478 
	C4214,4531 4256,4585 4299,4639 
	C4341,4692 4383,4745 4427,4800 
	C4429,4796 4430,4794 4431,4791 
	C4431,4785 4431,4779 4431,4773 
	C4431,4685 4431,4597 4431,4507 
z"/>
<path    
	d="
M2750,4318 
	C2872,4338 2980,4426 3002,4566 
	C3017,4660 2996,4746 2933,4820 
	C2892,4868 2840,4899 2779,4914 
	C2709,4931 2638,4930 2570,4904 
	C2476,4867 2412,4802 2386,4703 
	C2360,4601 2376,4505 2445,4421 
	C2491,4366 2551,4334 2621,4320 
	C2663,4311 2706,4311 2750,4318 
M2513,4800 
	C2530,4815 2548,4829 2569,4839 
	C2637,4872 2708,4877 2780,4852 
	C2848,4829 2896,4783 2923,4717 
	C2940,4677 2945,4635 2940,4592 
	C2929,4493 2878,4424 2785,4387 
	C2733,4367 2680,4366 2626,4378 
	C2584,4388 2547,4407 2516,4436 
	C2451,4497 2430,4573 2441,4660 
	C2449,4713 2472,4760 2513,4800 
z"/>
<path    
	d="
M2242,4755 
	C2208,4824 2156,4872 2086,4901 
	C2052,4914 2017,4922 1981,4924 
	C1933,4926 1886,4922 1841,4905 
	C1730,4863 1663,4784 1645,4667 
	C1634,4602 1643,4538 1673,4478 
	C1707,4411 1760,4364 1830,4337 
	C1919,4302 2010,4303 2098,4343 
	C2194,4387 2251,4462 2268,4566 
	C2279,4631 2271,4694 2242,4755 
M2018,4860 
	C2099,4842 2157,4794 2190,4717 
	C2209,4670 2213,4621 2204,4571 
	C2188,4487 2142,4427 2064,4392 
	C2012,4368 1957,4365 1901,4376 
	C1824,4392 1766,4434 1731,4505 
	C1707,4552 1700,4601 1707,4653 
	C1719,4741 1765,4806 1846,4844 
	C1900,4869 1956,4873 2018,4860 
z"/>
<path    
	d="
M1060,4732 
	C1060,4594 1060,4458 1060,4320 
	C1065,4320 1069,4319 1073,4319 
	C1149,4319 1225,4318 1301,4319 
	C1342,4319 1382,4326 1420,4344 
	C1469,4367 1505,4403 1521,4456 
	C1536,4504 1535,4552 1519,4599 
	C1504,4643 1475,4675 1434,4696 
	C1422,4702 1409,4708 1395,4714 
	C1411,4738 1427,4759 1443,4781 
	C1459,4804 1475,4827 1491,4850 
	C1507,4872 1523,4894 1538,4915 
	C1537,4918 1537,4918 1537,4919 
	C1537,4919 1536,4919 1535,4919 
	C1514,4919 1493,4919 1470,4919 
	C1425,4855 1379,4791 1335,4728 
	C1265,4729 1196,4729 1129,4729 
	C1123,4734 1125,4740 1125,4745 
	C1124,4796 1124,4846 1125,4897 
	C1125,4904 1125,4910 1125,4917 
	C1118,4921 1111,4919 1105,4919 
	C1097,4920 1090,4919 1083,4919 
	C1076,4919 1069,4919 1061,4919 
	C1061,4914 1060,4909 1060,4903 
	C1060,4847 1060,4790 1060,4732 
M1445,4441 
	C1429,4417 1408,4401 1382,4390 
	C1357,4380 1331,4375 1304,4375 
	C1248,4374 1192,4374 1136,4373 
	C1133,4373 1129,4375 1124,4376 
	C1124,4396 1124,4416 1124,4436 
	C1124,4456 1124,4476 1124,4496 
	C1124,4515 1124,4535 1124,4554 
	C1124,4574 1124,4594 1125,4614 
	C1125,4634 1123,4654 1126,4674 
	C1133,4674 1139,4675 1145,4675 
	C1190,4675 1235,4675 1280,4674 
	C1298,4674 1315,4673 1332,4671 
	C1354,4668 1375,4662 1395,4652 
	C1430,4633 1453,4605 1462,4567 
	C1472,4524 1469,4482 1445,4441 
z"/>
<path    
	d="
M4968,4924 
	C4904,4925 4847,4911 4794,4879 
	C4717,4833 4670,4765 4655,4677 
	C4641,4599 4652,4524 4694,4456 
	C4734,4391 4792,4350 4864,4328 
	C4909,4314 4954,4311 5000,4314 
	C5037,4317 5071,4325 5105,4340 
	C5134,4352 5160,4369 5182,4391 
	C5185,4394 5187,4396 5189,4398 
	C5180,4412 5166,4427 5150,4440 
	C5148,4438 5145,4436 5143,4433 
	C5099,4394 5047,4374 4989,4371 
	C4950,4369 4911,4373 4875,4387 
	C4788,4419 4735,4480 4717,4570 
	C4703,4644 4717,4712 4764,4772 
	C4806,4825 4861,4854 4927,4864 
	C4974,4871 5020,4867 5065,4852 
	C5089,4844 5104,4836 5125,4821 
	C5126,4799 5125,4777 5125,4754 
	C5125,4732 5125,4710 5125,4688 
	C5125,4666 5125,4643 5125,4620 
	C5129,4619 5133,4619 5136,4619 
	C5152,4619 5169,4619 5185,4619 
	C5188,4635 5188,4820 5186,4849 
	C5124,4901 5051,4924 4968,4924 
z"/>
<path    
	d="
M3356,4319 
	C3428,4319 3499,4319 3569,4319 
	C3571,4319 3572,4320 3574,4321 
	C3574,4337 3574,4354 3574,4370 
	C3567,4375 3559,4373 3552,4373 
	C3452,4373 3351,4373 3250,4373 
	C3243,4373 3236,4373 3230,4373 
	C3228,4375 3228,4376 3228,4376 
	C3227,4377 3227,4377 3227,4378 
	C3227,4453 3227,4528 3227,4604 
	C3227,4605 3228,4606 3228,4607 
	C3229,4608 3229,4608 3229,4609 
	C3230,4609 3231,4609 3231,4609 
	C3233,4609 3234,4609 3235,4609 
	C3236,4609 3237,4609 3237,4609 
	C3239,4609 3241,4609 3243,4609 
	C3338,4609 3433,4609 3527,4609 
	C3529,4609 3530,4609 3531,4609 
	C3532,4609 3533,4610 3535,4610 
	C3539,4627 3535,4645 3537,4663 
	C3523,4665 3510,4664 3498,4664 
	C3484,4664 3471,4664 3458,4664 
	C3445,4664 3432,4664 3420,4664 
	C3407,4664 3394,4664 3382,4664 
	C3369,4664 3357,4664 3344,4664 
	C3331,4664 3317,4664 3304,4664 
	C3291,4664 3279,4664 3266,4664 
	C3253,4664 3241,4664 3228,4664 
	C3225,4682 3227,4699 3226,4715 
	C3226,4732 3226,4748 3226,4765 
	C3226,4782 3226,4800 3226,4817 
	C3226,4834 3226,4850 3226,4867 
	C3226,4884 3226,4900 3226,4916 
	C3212,4920 3192,4921 3164,4918 
	C3160,4912 3162,4904 3162,4897 
	C3162,4726 3162,4556 3162,4385 
	C3162,4364 3162,4342 3162,4320 
	C3167,4319 3172,4319 3178,4319 
	C3236,4319 3295,4319 3356,4319 
z"/>
<path    
	d="
M3783,4548 
	C3783,4672 3783,4794 3783,4918 
	C3761,4921 3741,4919 3721,4919 
	C3720,4918 3720,4918 3720,4917 
	C3719,4916 3719,4916 3719,4915 
	C3719,4717 3719,4519 3719,4321 
	C3730,4318 3759,4317 3782,4320 
	C3784,4339 3783,4357 3783,4376 
	C3783,4395 3783,4414 3783,4434 
	C3783,4452 3783,4471 3783,4490 
	C3783,4508 3783,4527 3783,4548 
z"/>
</g>

</svg>